<svg width="461.759" height="461.759" xmlns="http://www.w3.org/2000/svg">
 <g>
  <title>background</title>
  <rect x="-1" y="-1" width="463.759" height="463.759" id="canvas_background" fill="none"/>
 </g>

 <g>
  <title>Layer 1</title>
  <g id="svg_1" stroke="null">
   <path d="m9.94142,298.69563l140.88747,0l0,140.89033l-140.88747,0l0,-140.89033zm185.19317,140.89033l140.88938,0l0,-140.89033l-140.88938,0l0,140.89033zm-182.52431,-182.52431l140.88747,0l0,-140.88461l-140.88747,0l0,140.88461zm307.34149,-157.28161l-49.15098,-75.66239l-75.6662,49.14907l49.15193,75.66239l75.66525,-49.14907zm-101.09559,115.74002l67.66915,59.68544l59.68258,-67.66344l-67.6682,-59.69116l-59.68354,67.66915l0.00001,0.00001zm183.61014,-148.36446l-76.8349,47.29649l47.29268,76.83299l76.8349,-47.29078l-47.29268,-76.83871l0,0.00001z" id="svg_2" fill="#52d3ff" stroke-width="14" stroke="#00a3d9"/>
  </g>
  <g id="svg_3"/>
  <g id="svg_4"/>
  <g id="svg_5"/>
  <g id="svg_6"/>
  <g id="svg_7"/>
  <g id="svg_8"/>
  <g id="svg_9"/>
  <g id="svg_10"/>
  <g id="svg_11"/>
  <g id="svg_12"/>
  <g id="svg_13"/>
  <g id="svg_14"/>
  <g id="svg_15"/>
  <g id="svg_16"/>
  <g id="svg_17"/>
 </g>
</svg>