<svg width="461.759" height="461.759" xmlns="http://www.w3.org/2000/svg">

 <g>
  <title>background</title>
  <rect fill="none" id="canvas_background" height="602" width="802" y="-1" x="-1"/>
 </g>
 <g>
  <title>Layer 1</title>
  <g id="svg_1">
   <path stroke-width="0" stroke="#000" fill="#fff" id="svg_2" d="m0,301.058l147.916,0l0,147.919l-147.916,0l0,-147.919zm194.432,147.919l147.918,0l0,-147.919l-147.918,0l0,147.919zm-191.63,-191.63l147.916,0l0,-147.913l-147.916,0l0,147.913zm322.674,-165.128l-51.603,-79.437l-79.441,51.601l51.604,79.437l79.44,-51.601zm-106.139,121.514l71.045,62.663l62.66,-71.039l-71.044,-62.669l-62.661,71.045zm192.77,-155.766l-80.668,49.656l49.652,80.666l80.668,-49.65l-49.652,-80.672z"/>
  </g>
  <g id="svg_3"/>
  <g id="svg_4"/>
  <g id="svg_5"/>
  <g id="svg_6"/>
  <g id="svg_7"/>
  <g id="svg_8"/>
  <g id="svg_9"/>
  <g id="svg_10"/>
  <g id="svg_11"/>
  <g id="svg_12"/>
  <g id="svg_13"/>
  <g id="svg_14"/>
  <g id="svg_15"/>
  <g id="svg_16"/>
  <g id="svg_17"/>
 </g>
</svg>